# xmcd
#
# Track frame offsets:
#	150
#	18567
#	43939
#	56610
#	75832
#	88127
#	112167
#	128245
#	148695
#	165395
#	185827
#	201895
#
# Disc length: 2859 seconds
#
# Revision: 0
# Processed by: cddbd v1.5.1PL2 Copyright (c) Steve Scherf et al.
# Submitted via: dBpowerAMP V4.0
#
DISCID=a90b290c
DTITLE=Various Artist - Rhino On Da Bayou!
DYEAR=1900
DGENRE=Southern Rock
TTITLE0=The Meters - Hey Pocky A-Way
TTITLE1=Dr. John - Gris-Gris Gumbo Ya Ya
TTITLE2=Professor Longhair - Go To The Mardi Gras
TTITLE3=Beausoleil - La Danse De La Vie
TTITLE4=Clifton Chenier - Eh, Petite Fille
TTITLE5=Neville Brothers - Fire On The Bayou
TTITLE6=Rockin' Sidney - My Toot-Toot
TTITLE7=Queen Ida and Her Zydeco Band - My Girl Josephine
TTITLE8=Rocking Dopsie and The Cajun Twisters - Zydeco 'Round The World
TTITLE9=Rebirth Brass Band - Do Whatcha Wanna - Part 3
TTITLE10=Dirty Dozen Brass Band - Li'l Liza Jane
TTITLE11=Rankie Ford - Sea Cruise
EXTD=Promotional album, not for resale
EXTT0=
EXTT1=
EXTT2=
EXTT3=
EXTT4=
EXTT5=
EXTT6=
EXTT7=
EXTT8=
EXTT9=
EXTT10=
EXTT11=
PLAYORDER=
